<mxfile host="app.diagrams.net" modified="2022-07-08T20:44:05.295Z" agent="5.0 (Windows NT 10.0; Win64; x64) AppleWebKit/537.36 (KHTML, like Gecko) Chrome/103.0.0.0 Safari/537.36" etag="QYlKwkTadg_fD3qgcfmT" version="20.0.4" type="github">
  <diagram id="C8j_8flPOBpoar4NSnce" name="Page-1">
    <mxGraphModel dx="2062" dy="1160" grid="1" gridSize="10" guides="1" tooltips="1" connect="1" arrows="1" fold="1" page="1" pageScale="1" pageWidth="850" pageHeight="1100" math="0" shadow="0">
      <root>
        <mxCell id="0" />
        <mxCell id="1" parent="0" />
        <mxCell id="mgipW3gkoZzFsmlLgcQ_-7" value="PPUX" style="swimlane;" parent="1" vertex="1">
          <mxGeometry x="80" y="40" width="360" height="70" as="geometry" />
        </mxCell>
        <mxCell id="mgipW3gkoZzFsmlLgcQ_-8" value="Process Advisor" style="rounded=0;whiteSpace=wrap;html=1;" parent="mgipW3gkoZzFsmlLgcQ_-7" vertex="1">
          <mxGeometry x="60" y="30" width="250" height="30" as="geometry" />
        </mxCell>
        <mxCell id="mgipW3gkoZzFsmlLgcQ_-9" value="Dataverse (CDS)" style="swimlane;" parent="1" vertex="1">
          <mxGeometry x="80" y="220" width="180" height="70" as="geometry" />
        </mxCell>
        <mxCell id="mgipW3gkoZzFsmlLgcQ_-10" value="Process Advisor Analyze Custom Action" style="rounded=0;whiteSpace=wrap;html=1;" parent="mgipW3gkoZzFsmlLgcQ_-9" vertex="1">
          <mxGeometry x="20" y="30" width="140" height="30" as="geometry" />
        </mxCell>
        <mxCell id="mgipW3gkoZzFsmlLgcQ_-11" value="Process Insights Service" style="swimlane;" parent="1" vertex="1">
          <mxGeometry x="81" y="371" width="360" height="680" as="geometry" />
        </mxCell>
        <mxCell id="mgipW3gkoZzFsmlLgcQ_-12" value="JobsController/HandleJobAsync" style="rounded=0;whiteSpace=wrap;html=1;" parent="mgipW3gkoZzFsmlLgcQ_-11" vertex="1">
          <mxGeometry x="60" y="51" width="250" height="30" as="geometry" />
        </mxCell>
        <mxCell id="mgipW3gkoZzFsmlLgcQ_-15" value="TaskDataAnalyzeStartProcessingLogic" style="rounded=0;whiteSpace=wrap;html=1;" parent="mgipW3gkoZzFsmlLgcQ_-11" vertex="1">
          <mxGeometry x="60" y="130" width="250" height="30" as="geometry" />
        </mxCell>
        <mxCell id="mgipW3gkoZzFsmlLgcQ_-16" value="DataPrepStepTabularData" style="rounded=0;whiteSpace=wrap;html=1;" parent="mgipW3gkoZzFsmlLgcQ_-11" vertex="1">
          <mxGeometry x="60" y="199" width="250" height="30" as="geometry" />
        </mxCell>
        <mxCell id="mgipW3gkoZzFsmlLgcQ_-17" value="MinitBinaryDataImportStep" style="rounded=0;whiteSpace=wrap;html=1;fontStyle=1;fontSize=15;" parent="mgipW3gkoZzFsmlLgcQ_-11" vertex="1">
          <mxGeometry x="60" y="269" width="250" height="30" as="geometry" />
        </mxCell>
        <mxCell id="mgipW3gkoZzFsmlLgcQ_-18" value="MinitViewDataExportStep" style="rounded=0;whiteSpace=wrap;html=1;fontStyle=1;fontSize=15;" parent="mgipW3gkoZzFsmlLgcQ_-11" vertex="1">
          <mxGeometry x="60" y="339" width="250" height="30" as="geometry" />
        </mxCell>
        <mxCell id="mgipW3gkoZzFsmlLgcQ_-20" value="UploadProcessReportStep" style="rounded=0;whiteSpace=wrap;html=1;" parent="mgipW3gkoZzFsmlLgcQ_-11" vertex="1">
          <mxGeometry x="60" y="484" width="250" height="30" as="geometry" />
        </mxCell>
        <mxCell id="mgipW3gkoZzFsmlLgcQ_-21" value="UpdateTaskAttributesStep" style="rounded=0;whiteSpace=wrap;html=1;" parent="mgipW3gkoZzFsmlLgcQ_-11" vertex="1">
          <mxGeometry x="60" y="556" width="250" height="30" as="geometry" />
        </mxCell>
        <mxCell id="mgipW3gkoZzFsmlLgcQ_-22" value="UpdateScheduledAnalysisStep" style="rounded=0;whiteSpace=wrap;html=1;" parent="mgipW3gkoZzFsmlLgcQ_-11" vertex="1">
          <mxGeometry x="60" y="620" width="250" height="30" as="geometry" />
        </mxCell>
        <mxCell id="mgipW3gkoZzFsmlLgcQ_-41" value="MinitProcessModelDataExportStep" style="rounded=0;whiteSpace=wrap;html=1;fontStyle=1;fontSize=15;" parent="mgipW3gkoZzFsmlLgcQ_-11" vertex="1">
          <mxGeometry x="60" y="411" width="250" height="30" as="geometry" />
        </mxCell>
        <mxCell id="mgipW3gkoZzFsmlLgcQ_-57" value="" style="endArrow=classic;html=1;rounded=0;fontSize=15;exitX=0.5;exitY=1;exitDx=0;exitDy=0;" parent="mgipW3gkoZzFsmlLgcQ_-11" source="mgipW3gkoZzFsmlLgcQ_-12" target="mgipW3gkoZzFsmlLgcQ_-15" edge="1">
          <mxGeometry width="50" height="50" relative="1" as="geometry">
            <mxPoint x="-111" y="249" as="sourcePoint" />
            <mxPoint x="-61" y="199" as="targetPoint" />
          </mxGeometry>
        </mxCell>
        <mxCell id="mgipW3gkoZzFsmlLgcQ_-58" value="" style="endArrow=classic;html=1;rounded=0;fontSize=15;exitX=0.5;exitY=1;exitDx=0;exitDy=0;" parent="mgipW3gkoZzFsmlLgcQ_-11" source="mgipW3gkoZzFsmlLgcQ_-15" target="mgipW3gkoZzFsmlLgcQ_-16" edge="1">
          <mxGeometry width="50" height="50" relative="1" as="geometry">
            <mxPoint x="195" y="91" as="sourcePoint" />
            <mxPoint x="195" y="140" as="targetPoint" />
          </mxGeometry>
        </mxCell>
        <mxCell id="mgipW3gkoZzFsmlLgcQ_-60" value="" style="endArrow=classic;html=1;rounded=0;fontSize=15;exitX=0.5;exitY=1;exitDx=0;exitDy=0;" parent="mgipW3gkoZzFsmlLgcQ_-11" source="mgipW3gkoZzFsmlLgcQ_-16" target="mgipW3gkoZzFsmlLgcQ_-17" edge="1">
          <mxGeometry width="50" height="50" relative="1" as="geometry">
            <mxPoint x="-101" y="379" as="sourcePoint" />
            <mxPoint x="-51" y="329" as="targetPoint" />
          </mxGeometry>
        </mxCell>
        <mxCell id="mgipW3gkoZzFsmlLgcQ_-61" value="" style="endArrow=classic;html=1;rounded=0;fontSize=15;exitX=0.5;exitY=1;exitDx=0;exitDy=0;" parent="mgipW3gkoZzFsmlLgcQ_-11" source="mgipW3gkoZzFsmlLgcQ_-17" target="mgipW3gkoZzFsmlLgcQ_-18" edge="1">
          <mxGeometry width="50" height="50" relative="1" as="geometry">
            <mxPoint x="-11" y="439" as="sourcePoint" />
            <mxPoint x="39" y="389" as="targetPoint" />
          </mxGeometry>
        </mxCell>
        <mxCell id="mgipW3gkoZzFsmlLgcQ_-62" value="" style="endArrow=classic;html=1;rounded=0;fontSize=15;exitX=0.5;exitY=1;exitDx=0;exitDy=0;entryX=0.5;entryY=0;entryDx=0;entryDy=0;" parent="mgipW3gkoZzFsmlLgcQ_-11" source="mgipW3gkoZzFsmlLgcQ_-18" target="mgipW3gkoZzFsmlLgcQ_-41" edge="1">
          <mxGeometry width="50" height="50" relative="1" as="geometry">
            <mxPoint x="-51" y="469" as="sourcePoint" />
            <mxPoint x="-1" y="419" as="targetPoint" />
          </mxGeometry>
        </mxCell>
        <mxCell id="mgipW3gkoZzFsmlLgcQ_-63" value="" style="endArrow=classic;html=1;rounded=0;fontSize=15;exitX=0.5;exitY=1;exitDx=0;exitDy=0;entryX=0.5;entryY=0;entryDx=0;entryDy=0;" parent="mgipW3gkoZzFsmlLgcQ_-11" source="mgipW3gkoZzFsmlLgcQ_-41" target="mgipW3gkoZzFsmlLgcQ_-20" edge="1">
          <mxGeometry width="50" height="50" relative="1" as="geometry">
            <mxPoint x="-91" y="499" as="sourcePoint" />
            <mxPoint x="-41" y="449" as="targetPoint" />
          </mxGeometry>
        </mxCell>
        <mxCell id="mgipW3gkoZzFsmlLgcQ_-64" value="" style="endArrow=classic;html=1;rounded=0;fontSize=15;exitX=0.5;exitY=1;exitDx=0;exitDy=0;entryX=0.5;entryY=0;entryDx=0;entryDy=0;" parent="mgipW3gkoZzFsmlLgcQ_-11" source="mgipW3gkoZzFsmlLgcQ_-20" target="mgipW3gkoZzFsmlLgcQ_-21" edge="1">
          <mxGeometry width="50" height="50" relative="1" as="geometry">
            <mxPoint x="-61" y="579" as="sourcePoint" />
            <mxPoint x="-11" y="529" as="targetPoint" />
          </mxGeometry>
        </mxCell>
        <mxCell id="mgipW3gkoZzFsmlLgcQ_-65" value="" style="endArrow=classic;html=1;rounded=0;fontSize=15;exitX=0.5;exitY=1;exitDx=0;exitDy=0;" parent="mgipW3gkoZzFsmlLgcQ_-11" source="mgipW3gkoZzFsmlLgcQ_-21" target="mgipW3gkoZzFsmlLgcQ_-22" edge="1">
          <mxGeometry width="50" height="50" relative="1" as="geometry">
            <mxPoint x="-61" y="629" as="sourcePoint" />
            <mxPoint x="-11" y="579" as="targetPoint" />
          </mxGeometry>
        </mxCell>
        <mxCell id="mgipW3gkoZzFsmlLgcQ_-13" value="Microsoft.Dynamics.CRM.Analyze" style="endArrow=classic;html=1;rounded=0;entryX=0.5;entryY=0;entryDx=0;entryDy=0;exitX=0.25;exitY=1;exitDx=0;exitDy=0;" parent="1" source="mgipW3gkoZzFsmlLgcQ_-7" target="mgipW3gkoZzFsmlLgcQ_-9" edge="1">
          <mxGeometry width="50" height="50" relative="1" as="geometry">
            <mxPoint x="-30" y="230" as="sourcePoint" />
            <mxPoint x="20" y="180" as="targetPoint" />
          </mxGeometry>
        </mxCell>
        <mxCell id="mgipW3gkoZzFsmlLgcQ_-14" value="api/v1.0/jobs/" style="endArrow=classic;html=1;rounded=0;entryX=0.5;entryY=0;entryDx=0;entryDy=0;exitX=0.5;exitY=1;exitDx=0;exitDy=0;" parent="1" source="mgipW3gkoZzFsmlLgcQ_-9" target="mgipW3gkoZzFsmlLgcQ_-11" edge="1">
          <mxGeometry width="50" height="50" relative="1" as="geometry">
            <mxPoint y="480" as="sourcePoint" />
            <mxPoint x="50" y="430" as="targetPoint" />
          </mxGeometry>
        </mxCell>
        <mxCell id="mgipW3gkoZzFsmlLgcQ_-25" value="Dataverse (CDS) Database" style="swimlane;" parent="1" vertex="1">
          <mxGeometry x="560" y="40" width="200" height="200" as="geometry" />
        </mxCell>
        <mxCell id="mgipW3gkoZzFsmlLgcQ_-28" value="msdyn_pminferredtasks" style="rounded=0;whiteSpace=wrap;html=1;" parent="mgipW3gkoZzFsmlLgcQ_-25" vertex="1">
          <mxGeometry x="20" y="40" width="160" height="30" as="geometry" />
        </mxCell>
        <mxCell id="mgipW3gkoZzFsmlLgcQ_-26" value="Azure Data Lake" style="swimlane;" parent="1" vertex="1">
          <mxGeometry x="560" y="280" width="200" height="770" as="geometry" />
        </mxCell>
        <mxCell id="mgipW3gkoZzFsmlLgcQ_-29" value="Raw CSV Formatted Process Data File" style="rounded=0;whiteSpace=wrap;html=1;" parent="mgipW3gkoZzFsmlLgcQ_-26" vertex="1">
          <mxGeometry x="20" y="110" width="160" height="30" as="geometry" />
        </mxCell>
        <mxCell id="mgipW3gkoZzFsmlLgcQ_-45" value="Events Data File" style="rounded=0;whiteSpace=wrap;html=1;" parent="mgipW3gkoZzFsmlLgcQ_-26" vertex="1">
          <mxGeometry x="20" y="520" width="160" height="30" as="geometry" />
        </mxCell>
        <mxCell id="mgipW3gkoZzFsmlLgcQ_-46" value="Variants Data File" style="rounded=0;whiteSpace=wrap;html=1;" parent="mgipW3gkoZzFsmlLgcQ_-26" vertex="1">
          <mxGeometry x="20" y="620" width="160" height="30" as="geometry" />
        </mxCell>
        <mxCell id="mgipW3gkoZzFsmlLgcQ_-48" value="CaseStatistics Data File" style="rounded=0;whiteSpace=wrap;html=1;" parent="mgipW3gkoZzFsmlLgcQ_-26" vertex="1">
          <mxGeometry x="20" y="570" width="160" height="30" as="geometry" />
        </mxCell>
        <mxCell id="mgipW3gkoZzFsmlLgcQ_-49" value="VariantsResource Data File" style="rounded=0;whiteSpace=wrap;html=1;" parent="mgipW3gkoZzFsmlLgcQ_-26" vertex="1">
          <mxGeometry x="20" y="670" width="160" height="30" as="geometry" />
        </mxCell>
        <mxCell id="mgipW3gkoZzFsmlLgcQ_-50" value="View Data File" style="rounded=0;whiteSpace=wrap;html=1;" parent="mgipW3gkoZzFsmlLgcQ_-26" vertex="1">
          <mxGeometry x="20" y="430" width="160" height="30" as="geometry" />
        </mxCell>
        <mxCell id="mgipW3gkoZzFsmlLgcQ_-30" value="Power Query Service" style="swimlane;" parent="1" vertex="1">
          <mxGeometry x="266" y="220" width="170" height="70" as="geometry" />
        </mxCell>
        <mxCell id="mgipW3gkoZzFsmlLgcQ_-31" value="PowerPlatformDataflowsController" style="rounded=0;whiteSpace=wrap;html=1;" parent="mgipW3gkoZzFsmlLgcQ_-30" vertex="1">
          <mxGeometry x="20" y="30" width="130" height="30" as="geometry" />
        </mxCell>
        <mxCell id="mgipW3gkoZzFsmlLgcQ_-32" value="BapEnvironments/Dataflows" style="endArrow=classic;html=1;rounded=0;exitX=0.75;exitY=1;exitDx=0;exitDy=0;" parent="1" source="mgipW3gkoZzFsmlLgcQ_-7" target="mgipW3gkoZzFsmlLgcQ_-30" edge="1">
          <mxGeometry width="50" height="50" relative="1" as="geometry">
            <mxPoint x="480" y="270" as="sourcePoint" />
            <mxPoint x="530" y="220" as="targetPoint" />
          </mxGeometry>
        </mxCell>
        <mxCell id="mgipW3gkoZzFsmlLgcQ_-33" value="" style="endArrow=classic;html=1;rounded=0;exitX=0.5;exitY=1;exitDx=0;exitDy=0;entryX=0;entryY=0;entryDx=0;entryDy=0;" parent="1" source="mgipW3gkoZzFsmlLgcQ_-30" target="mgipW3gkoZzFsmlLgcQ_-29" edge="1">
          <mxGeometry width="50" height="50" relative="1" as="geometry">
            <mxPoint x="470" y="320" as="sourcePoint" />
            <mxPoint x="520" y="270" as="targetPoint" />
          </mxGeometry>
        </mxCell>
        <mxCell id="mgipW3gkoZzFsmlLgcQ_-39" value="" style="endArrow=classic;html=1;rounded=0;exitX=0;exitY=0.5;exitDx=0;exitDy=0;entryX=1;entryY=0;entryDx=0;entryDy=0;" parent="1" source="mgipW3gkoZzFsmlLgcQ_-28" target="mgipW3gkoZzFsmlLgcQ_-16" edge="1">
          <mxGeometry width="50" height="50" relative="1" as="geometry">
            <mxPoint x="520" y="110" as="sourcePoint" />
            <mxPoint x="530" y="550" as="targetPoint" />
          </mxGeometry>
        </mxCell>
        <mxCell id="mgipW3gkoZzFsmlLgcQ_-40" value="" style="endArrow=classic;html=1;rounded=0;exitX=0;exitY=0.75;exitDx=0;exitDy=0;entryX=1;entryY=1;entryDx=0;entryDy=0;" parent="1" source="mgipW3gkoZzFsmlLgcQ_-29" target="mgipW3gkoZzFsmlLgcQ_-16" edge="1">
          <mxGeometry width="50" height="50" relative="1" as="geometry">
            <mxPoint x="460" y="600" as="sourcePoint" />
            <mxPoint x="510" y="550" as="targetPoint" />
          </mxGeometry>
        </mxCell>
        <mxCell id="mgipW3gkoZzFsmlLgcQ_-51" value="" style="endArrow=classic;html=1;rounded=0;exitX=1;exitY=0.5;exitDx=0;exitDy=0;entryX=0;entryY=0.5;entryDx=0;entryDy=0;" parent="1" source="mgipW3gkoZzFsmlLgcQ_-41" target="mgipW3gkoZzFsmlLgcQ_-45" edge="1">
          <mxGeometry width="50" height="50" relative="1" as="geometry">
            <mxPoint x="470" y="880" as="sourcePoint" />
            <mxPoint x="520" y="830" as="targetPoint" />
          </mxGeometry>
        </mxCell>
        <mxCell id="mgipW3gkoZzFsmlLgcQ_-52" value="" style="endArrow=classic;html=1;rounded=0;exitX=1;exitY=0.5;exitDx=0;exitDy=0;entryX=0;entryY=0.5;entryDx=0;entryDy=0;" parent="1" source="mgipW3gkoZzFsmlLgcQ_-41" target="mgipW3gkoZzFsmlLgcQ_-48" edge="1">
          <mxGeometry width="50" height="50" relative="1" as="geometry">
            <mxPoint x="470" y="900" as="sourcePoint" />
            <mxPoint x="520" y="850" as="targetPoint" />
          </mxGeometry>
        </mxCell>
        <mxCell id="mgipW3gkoZzFsmlLgcQ_-53" value="" style="endArrow=classic;html=1;rounded=0;exitX=1;exitY=0.5;exitDx=0;exitDy=0;entryX=0;entryY=0.5;entryDx=0;entryDy=0;" parent="1" source="mgipW3gkoZzFsmlLgcQ_-41" target="mgipW3gkoZzFsmlLgcQ_-46" edge="1">
          <mxGeometry width="50" height="50" relative="1" as="geometry">
            <mxPoint x="470" y="950" as="sourcePoint" />
            <mxPoint x="520" y="900" as="targetPoint" />
          </mxGeometry>
        </mxCell>
        <mxCell id="mgipW3gkoZzFsmlLgcQ_-54" value="" style="endArrow=classic;html=1;rounded=0;exitX=1;exitY=0.5;exitDx=0;exitDy=0;entryX=0;entryY=0.5;entryDx=0;entryDy=0;" parent="1" source="mgipW3gkoZzFsmlLgcQ_-41" target="mgipW3gkoZzFsmlLgcQ_-49" edge="1">
          <mxGeometry width="50" height="50" relative="1" as="geometry">
            <mxPoint x="470" y="970" as="sourcePoint" />
            <mxPoint x="520" y="920" as="targetPoint" />
          </mxGeometry>
        </mxCell>
        <mxCell id="mgipW3gkoZzFsmlLgcQ_-55" value="" style="endArrow=classic;html=1;rounded=0;exitX=1;exitY=0.5;exitDx=0;exitDy=0;entryX=0;entryY=0.5;entryDx=0;entryDy=0;" parent="1" source="mgipW3gkoZzFsmlLgcQ_-18" target="mgipW3gkoZzFsmlLgcQ_-50" edge="1">
          <mxGeometry width="50" height="50" relative="1" as="geometry">
            <mxPoint x="480" y="990" as="sourcePoint" />
            <mxPoint x="530" y="940" as="targetPoint" />
          </mxGeometry>
        </mxCell>
      </root>
    </mxGraphModel>
  </diagram>
</mxfile>
